# xmcd CD database file
#
# Track frame offsets:
#	150
#	15730
#	30140
#	40897
#	58037
#	73150
#	87912
#	104647
#	122497
#	137350
#	151100
#	168532
#	181980
#	201890
#
# Disc length: 2937 seconds
#
# Revision: 1
# Processed by: cddbd v1.5.2PL0 Copyright (c) Steve Scherf et al.
# Submitted via: CDex 1.70beta2
#
DISCID=b30b770e
DTITLE=BLEEKER ST. - BLEEKER ST._TUMBLIN' DOWN 1995
DYEAR=1995
DGENRE=Blues
TTITLE0=BLEEKER ST._TUMBLIN' DOWN_POOR BOY BLUES
TTITLE1=BLEEKER ST._TUMBLIN' DOWN_DR.BLUES
TTITLE2=BLEEKER ST._TUMBLIN' DOWN_YOU THROUGHT LOVE WAS SOMETHING
TTITLE3=BLEEKER ST._TUMBLIN' DOWN_FIXING TO THE BLUES
TTITLE4=BLEEKER ST._TUMBLIN' DOWN_LOVE THING
TTITLE5=BLEEKER ST._TUMBLIN' DOWN_TALK TALK TALK
TTITLE6=BLEEKER ST._TUMBLIN' DOWN_THE LASTB TIME I FOOL AROUND WITH  YOU
TTITLE7=BLEEKER ST._TUMBLIN' DOWN_MAKE ME A PALLET ON THE FLOOR
TTITLE8=BLEEKER ST._TUMBLIN' DOWN_DEAD SHRIMP BLUES
TTITLE9=BLEEKER ST._TUMBLIN' DOWN_OSCAR
TTITLE10=BLEEKER ST._TUMBLIN' DOWN_TRUMBLIN DOWN
TTITLE11=BLEEKER ST._TUMBLIN' DOWN_VOODOO WOMAN
TTITLE12=BLEEKER ST._TUMBLIN' DOWN_PHANTHOM TRAIN
TTITLE13=BLEEKER ST._TUMBLIN' DOWN_CRAZY LITTLE LOVE SONG
EXTD=YEAR: 1995
EXTT0=
EXTT1=
EXTT2=
EXTT3=
EXTT4=
EXTT5=
EXTT6=
EXTT7=
EXTT8=
EXTT9=
EXTT10=
EXTT11=
EXTT12=
EXTT13=
PLAYORDER=
